<svg xmlns="http://www.w3.org/2000/svg" width="340.6" height="120.2" viewBox="0 0 340.6 120.2">
  <defs>
    <style>
      .a {
        fill: #58a9de;
      }

      .b {
        fill: #333;
      }
    </style>
  </defs>
  <g>
    <polygon class="a" points="302.5 106 302.5 89.8 335 89.8 335 77.2 302.5 77.2 302.5 62.01 339.3 62.01 339.3 49.01 286.4 49.01 286.4 119 340.6 119 340.6 106 302.5 106"/>
    <path class="a" d="M239.25,96.56l.14-.06a23.43,23.43,0,0,0,10.5-8.65,24,24,0,0,0,3.7-13.45,24.42,24.42,0,0,0-3.7-13.6,23.69,23.69,0,0,0-10.5-8.75,39.39,39.39,0,0,0-16.2-3h-30.3v70h16.2V99.5H224L237.39,119h17.5Zm-5.76-13.21q-3.69,3.25-11.2,3.25h-13.2V62.2h13.2q7.5,0,11.2,3.2t3.7,9A11.27,11.27,0,0,1,233.49,83.35Z"/>
    <path class="a" d="M134.29,49h-16l-31.2,70h16.6l6.24-15h32.45l6.21,15h17ZM115.05,91.7l11.14-26.79,11.1,26.79Z"/>
    <path class="a" d="M22.7,67.8a20.48,20.48,0,0,1,7.1-4.6,24.67,24.67,0,0,1,9-1.6,22.53,22.53,0,0,1,9.6,2,24.46,24.46,0,0,1,8,6.15l10.4-9.6A32.09,32.09,0,0,0,54.45,51,41.35,41.35,0,0,0,38,47.8a41.91,41.91,0,0,0-15.1,2.65,36.13,36.13,0,0,0-12,7.55,34.76,34.76,0,0,0-8,11.5,38.31,38.31,0,0,0,0,29,35,35,0,0,0,20,19,41.81,41.81,0,0,0,15,2.65A41,41,0,0,0,54.45,117a32.41,32.41,0,0,0,12.35-9.3L56.4,98.1a23.76,23.76,0,0,1-8,6.25,22.38,22.38,0,0,1-9.6,2.05,24.46,24.46,0,0,1-9-1.6,20.34,20.34,0,0,1-7.1-4.6,20.94,20.94,0,0,1-4.65-7.1,25.92,25.92,0,0,1,0-18.2A21,21,0,0,1,22.7,67.8Z"/>
    <polygon class="b" points="289.2 28.4 271.65 28.4 271.65 0 263.55 0 263.55 35 289.2 35 289.2 28.4"/>
    <path class="b" d="M239.24,0h-8l-15.6,35h8.3l3.12-7.5h16.23l3.1,7.5h8.5Zm-9.62,21.35L235.19,8l5.55,13.39Z"/>
    <polygon class="b" points="193.35 35 201.45 35 201.45 6.6 212.65 6.6 212.65 0 182.15 0 182.15 6.6 193.35 6.6 193.35 35"/>
    <polygon class="b" points="164.8 21.24 147.4 0 140.7 0 140.7 35 148.7 35 148.7 13.76 166.15 35 172.8 35 172.8 0 164.8 0 164.8 21.24"/>
    <polygon class="b" points="129.25 28.5 110.2 28.5 110.2 20.4 126.45 20.4 126.45 14.1 110.2 14.1 110.2 6.5 128.6 6.5 128.6 0 102.15 0 102.15 35 129.25 35 129.25 28.5"/>
    <path class="b" d="M88.59,8.25a16.57,16.57,0,0,0-6.8-6.07A22.19,22.19,0,0,0,71.74,0H55.84V35h15.9a22.19,22.19,0,0,0,10.05-2.17,16.5,16.5,0,0,0,6.8-6.1A17,17,0,0,0,91,17.5,17,17,0,0,0,88.59,8.25Zm-7.17,15a9.54,9.54,0,0,1-4,3.78,13.17,13.17,0,0,1-6.08,1.32h-7.4V6.65h7.4A13.17,13.17,0,0,1,77.42,8a9.6,9.6,0,0,1,4,3.75,11.2,11.2,0,0,1,1.42,5.77A11.22,11.22,0,0,1,81.42,23.25Z"/>
  </g>
</svg>
