<svg aria-hidden="true" style="position: absolute; width: 0; height: 0; overflow: hidden;" version="1.1" xmlns="http://www.w3.org/2000/svg" xmlns:xlink="http://www.w3.org/1999/xlink">
<defs>
<symbol id="icon-activity" viewBox="0 0 24 24">
<path d="M22 11h-4c-0.439 0-0.812 0.283-0.949 0.684l-2.051 6.154-5.051-15.154c-0.175-0.524-0.741-0.807-1.265-0.633-0.31 0.103-0.535 0.343-0.633 0.633l-2.772 8.316h-3.279c-0.552 0-1 0.448-1 1s0.448 1 1 1h4c0.423-0.003 0.81-0.267 0.949-0.684l2.051-6.154 5.051 15.154c0.098 0.29 0.323 0.529 0.632 0.632 0.524 0.175 1.090-0.109 1.265-0.632l2.773-8.316h3.279c0.552 0 1-0.448 1-1s-0.448-1-1-1z"></path>
</symbol>
<symbol id="icon-alert-triangle" viewBox="0 0 24 24">
<path d="M11.148 4.374c0.073-0.123 0.185-0.242 0.334-0.332 0.236-0.143 0.506-0.178 0.756-0.116s0.474 0.216 0.614 0.448l8.466 14.133c0.070 0.12 0.119 0.268 0.128 0.434-0.015 0.368-0.119 0.591-0.283 0.759-0.18 0.184-0.427 0.298-0.693 0.301l-16.937-0.001c-0.152-0.001-0.321-0.041-0.481-0.134-0.239-0.138-0.399-0.359-0.466-0.607s-0.038-0.519 0.092-0.745zM9.432 3.346l-8.47 14.14c-0.422 0.731-0.506 1.55-0.308 2.29s0.68 1.408 1.398 1.822c0.464 0.268 0.976 0.4 1.475 0.402h16.943c0.839-0.009 1.587-0.354 2.123-0.902s0.864-1.303 0.855-2.131c-0.006-0.536-0.153-1.044-0.406-1.474l-8.474-14.147c-0.432-0.713-1.11-1.181-1.854-1.363s-1.561-0.081-2.269 0.349c-0.429 0.26-0.775 0.615-1.012 1.014zM11 9v4c0 0.552 0.448 1 1 1s1-0.448 1-1v-4c0-0.552-0.448-1-1-1s-1 0.448-1 1zM12 18c0.552 0 1-0.448 1-1s-0.448-1-1-1-1 0.448-1 1 0.448 1 1 1z"></path>
</symbol>
<symbol id="icon-edit-2" viewBox="0 0 24 24">
<path d="M16.293 2.293l-13.5 13.5c-0.117 0.116-0.21 0.268-0.258 0.444l-1.5 5.5c-0.046 0.163-0.049 0.346 0 0.526 0.145 0.533 0.695 0.847 1.228 0.702l5.5-1.5c0.159-0.042 0.315-0.129 0.444-0.258l13.5-13.5c0.747-0.747 1.121-1.729 1.121-2.707s-0.374-1.96-1.121-2.707-1.729-1.121-2.707-1.121-1.96 0.374-2.707 1.121zM17.707 3.707c0.357-0.357 0.824-0.535 1.293-0.535s0.936 0.178 1.293 0.536 0.535 0.823 0.535 1.292-0.178 0.936-0.535 1.293l-13.312 13.312-3.556 0.97 0.97-3.555z"></path>
</symbol>
<symbol id="icon-facebook" viewBox="0 0 24 24">
<path d="M17 3v2h-2c-0.552 0-1.053 0.225-1.414 0.586s-0.586 0.862-0.586 1.414v3c0 0.552 0.448 1 1 1h2.719l-0.5 2h-2.219c-0.552 0-1 0.448-1 1v7h-2v-7c0-0.552-0.448-1-1-1h-2v-2h2c0.552 0 1-0.448 1-1v-3c0-1.105 0.447-2.103 1.172-2.828s1.723-1.172 2.828-1.172zM18 1h-3c-1.657 0-3.158 0.673-4.243 1.757s-1.757 2.586-1.757 4.243v2h-2c-0.552 0-1 0.448-1 1v4c0 0.552 0.448 1 1 1h2v7c0 0.552 0.448 1 1 1h4c0.552 0 1-0.448 1-1v-7h2c0.466 0 0.858-0.319 0.97-0.757l1-4c0.134-0.536-0.192-1.079-0.728-1.213-0.083-0.021-0.167-0.031-0.242-0.030h-3v-2h3c0.552 0 1-0.448 1-1v-4c0-0.552-0.448-1-1-1z"></path>
</symbol>
<symbol id="icon-git-commit" viewBox="0 0 24 24">
<path d="M15 12c0 0.829-0.335 1.577-0.879 2.121s-1.292 0.879-2.121 0.879-1.577-0.335-2.121-0.879-0.879-1.292-0.879-2.121 0.335-1.577 0.879-2.121 1.292-0.879 2.121-0.879 1.577 0.335 2.121 0.879 0.879 1.292 0.879 2.121zM17.010 13h5.95c0.552 0 1-0.448 1-1s-0.448-1-1-1h-5.95c-0.037 0-0.073 0.002-0.109 0.006-0.198-0.982-0.685-1.86-1.365-2.541-0.904-0.904-2.156-1.465-3.536-1.465s-2.632 0.561-3.536 1.464c-0.681 0.681-1.167 1.559-1.365 2.54-0.032-0.002-0.066-0.004-0.099-0.004h-5.95c-0.552 0-1 0.448-1 1s0.448 1 1 1h5.95c0.033 0 0.067-0.002 0.099-0.005 0.198 0.982 0.685 1.86 1.365 2.54 0.904 0.904 2.156 1.465 3.536 1.465s2.632-0.561 3.536-1.464c0.681-0.681 1.167-1.559 1.365-2.541 0.036 0.004 0.072 0.006 0.109 0.006z"></path>
</symbol>
<symbol id="icon-instagram" viewBox="0 0 24 24">
<path d="M7 1c-1.657 0-3.158 0.673-4.243 1.757s-1.757 2.586-1.757 4.243v10c0 1.657 0.673 3.158 1.757 4.243s2.586 1.757 4.243 1.757h10c1.657 0 3.158-0.673 4.243-1.757s1.757-2.586 1.757-4.243v-10c0-1.657-0.673-3.158-1.757-4.243s-2.586-1.757-4.243-1.757zM7 3h10c1.105 0 2.103 0.447 2.828 1.172s1.172 1.723 1.172 2.828v10c0 1.105-0.447 2.103-1.172 2.828s-1.723 1.172-2.828 1.172h-10c-1.105 0-2.103-0.447-2.828-1.172s-1.172-1.723-1.172-2.828v-10c0-1.105 0.447-2.103 1.172-2.828s1.723-1.172 2.828-1.172zM16.989 11.223c-0.15-0.972-0.571-1.857-1.194-2.567-0.754-0.861-1.804-1.465-3.009-1.644-0.464-0.074-0.97-0.077-1.477-0.002-1.366 0.202-2.521 0.941-3.282 1.967s-1.133 2.347-0.93 3.712 0.941 2.521 1.967 3.282 2.347 1.133 3.712 0.93 2.521-0.941 3.282-1.967 1.133-2.347 0.93-3.712zM15.011 11.517c0.122 0.82-0.1 1.609-0.558 2.227s-1.15 1.059-1.969 1.18-1.609-0.1-2.227-0.558-1.059-1.15-1.18-1.969 0.1-1.609 0.558-2.227 1.15-1.059 1.969-1.18c0.313-0.046 0.615-0.042 0.87-0.002 0.74 0.11 1.366 0.47 1.818 0.986 0.375 0.428 0.63 0.963 0.72 1.543zM17.5 7.5c0.552 0 1-0.448 1-1s-0.448-1-1-1-1 0.448-1 1 0.448 1 1 1z"></path>
</symbol>
<symbol id="icon-linkedin" viewBox="0 0 24 24">
<path d="M16 7c-1.933 0-3.684 0.785-4.95 2.050s-2.050 3.017-2.050 4.95v7c0 0.552 0.448 1 1 1h4c0.552 0 1-0.448 1-1v-7c0-0.276 0.111-0.525 0.293-0.707s0.431-0.293 0.707-0.293 0.525 0.111 0.707 0.293 0.293 0.431 0.293 0.707v7c0 0.552 0.448 1 1 1h4c0.552 0 1-0.448 1-1v-7c0-1.933-0.785-3.684-2.050-4.95s-3.017-2.050-4.95-2.050zM16 9c1.381 0 2.63 0.559 3.536 1.464s1.464 2.155 1.464 3.536v6h-2v-6c0-0.828-0.337-1.58-0.879-2.121s-1.293-0.879-2.121-0.879-1.58 0.337-2.121 0.879-0.879 1.293-0.879 2.121v6h-2v-6c0-1.381 0.559-2.63 1.464-3.536s2.155-1.464 3.536-1.464zM2 8c-0.552 0-1 0.448-1 1v12c0 0.552 0.448 1 1 1h4c0.552 0 1-0.448 1-1v-12c0-0.552-0.448-1-1-1zM3 10h2v10h-2zM7 4c0-0.828-0.337-1.58-0.879-2.121s-1.293-0.879-2.121-0.879-1.58 0.337-2.121 0.879-0.879 1.293-0.879 2.121 0.337 1.58 0.879 2.121 1.293 0.879 2.121 0.879 1.58-0.337 2.121-0.879 0.879-1.293 0.879-2.121zM5 4c0 0.276-0.111 0.525-0.293 0.707s-0.431 0.293-0.707 0.293-0.525-0.111-0.707-0.293-0.293-0.431-0.293-0.707 0.111-0.525 0.293-0.707 0.431-0.293 0.707-0.293 0.525 0.111 0.707 0.293 0.293 0.431 0.293 0.707z"></path>
</symbol>
<symbol id="icon-mail" viewBox="0 0 24 24">
<path d="M3 7.921l8.427 5.899c0.34 0.235 0.795 0.246 1.147 0l8.426-5.899v10.079c0 0.272-0.11 0.521-0.295 0.705s-0.433 0.295-0.705 0.295h-16c-0.272 0-0.521-0.11-0.705-0.295s-0.295-0.433-0.295-0.705zM1 5.983c0 0.010 0 0.020 0 0.030v11.987c0 0.828 0.34 1.579 0.88 2.12s1.292 0.88 2.12 0.88h16c0.828 0 1.579-0.34 2.12-0.88s0.88-1.292 0.88-2.12v-11.988c0-0.010 0-0.020 0-0.030-0.005-0.821-0.343-1.565-0.88-2.102-0.541-0.54-1.292-0.88-2.12-0.88h-16c-0.828 0-1.579 0.34-2.12 0.88-0.537 0.537-0.875 1.281-0.88 2.103zM20.894 5.554l-8.894 6.225-8.894-6.225c0.048-0.096 0.112-0.183 0.188-0.259 0.185-0.185 0.434-0.295 0.706-0.295h16c0.272 0 0.521 0.11 0.705 0.295 0.076 0.076 0.14 0.164 0.188 0.259z"></path>
</symbol>
<symbol id="icon-map-pin" viewBox="0 0 24 24">
<path d="M22 10c0-2.761-1.12-5.263-2.929-7.071s-4.31-2.929-7.071-2.929-5.263 1.12-7.071 2.929-2.929 4.31-2.929 7.071c0 0.569 0.053 1.128 0.15 1.676 0.274 1.548 0.899 3.004 1.682 4.32 2.732 4.591 7.613 7.836 7.613 7.836 0.331 0.217 0.765 0.229 1.109 0 0 0 4.882-3.245 7.613-7.836 0.783-1.316 1.408-2.772 1.682-4.32 0.098-0.548 0.151-1.107 0.151-1.676zM20 10c0 0.444-0.041 0.887-0.119 1.328-0.221 1.25-0.737 2.478-1.432 3.646-1.912 3.214-5.036 5.747-6.369 6.74-1.398-0.916-4.588-3.477-6.53-6.74-0.695-1.168-1.211-2.396-1.432-3.646-0.077-0.441-0.118-0.884-0.118-1.328 0-2.209 0.894-4.208 2.343-5.657s3.448-2.343 5.657-2.343 4.208 0.894 5.657 2.343 2.343 3.448 2.343 5.657zM16 10c0-1.104-0.449-2.106-1.172-2.828s-1.724-1.172-2.828-1.172-2.106 0.449-2.828 1.172-1.172 1.724-1.172 2.828 0.449 2.106 1.172 2.828 1.724 1.172 2.828 1.172 2.106-0.449 2.828-1.172 1.172-1.724 1.172-2.828zM14 10c0 0.553-0.223 1.051-0.586 1.414s-0.861 0.586-1.414 0.586-1.051-0.223-1.414-0.586-0.586-0.861-0.586-1.414 0.223-1.051 0.586-1.414 0.861-0.586 1.414-0.586 1.051 0.223 1.414 0.586 0.586 0.861 0.586 1.414z"></path>
</symbol>
<symbol id="icon-phone-call" viewBox="0 0 24 24">
<path d="M14.859 5.981c0.943 0.184 1.74 0.683 2.31 1.374 0.42 0.51 0.716 1.124 0.852 1.793 0.109 0.541 0.637 0.891 1.178 0.782s0.891-0.637 0.782-1.178c-0.2-0.992-0.64-1.907-1.269-2.669-0.854-1.036-2.057-1.789-3.47-2.064-0.542-0.106-1.067 0.248-1.173 0.79s0.248 1.067 0.79 1.173zM14.94 1.994c2 0.222 3.743 1.162 5.005 2.544 1.118 1.224 1.858 2.794 2.062 4.519 0.065 0.548 0.562 0.941 1.11 0.876s0.941-0.562 0.876-1.11c-0.253-2.147-1.176-4.106-2.571-5.634-1.578-1.728-3.762-2.906-6.261-3.183-0.549-0.061-1.043 0.335-1.104 0.883s0.335 1.043 0.883 1.104zM23 16.92c0.016-0.714-0.236-1.404-0.673-1.943-0.46-0.566-1.129-0.967-1.925-1.080-0.8-0.098-1.695-0.314-2.586-0.646-0.433-0.159-0.893-0.218-1.344-0.174-0.663 0.064-1.307 0.349-1.819 0.855l-0.72 0.72c-1.77-1.117-3.36-2.667-4.583-4.589l0.726-0.726c0.322-0.33 0.563-0.726 0.707-1.156 0.212-0.632 0.214-1.336-0.039-2.011-0.289-0.753-0.518-1.644-0.644-2.595-0.104-0.714-0.456-1.345-0.963-1.804-0.539-0.486-1.256-0.779-2.027-0.771h-2.996c-0.088 0-0.182 0.004-0.273 0.012-0.824 0.075-1.542 0.478-2.033 1.066s-0.758 1.367-0.683 2.199c0.3 3.076 1.365 6.243 3.216 9.102 1.502 2.413 3.648 4.623 6.298 6.306 2.568 1.697 5.684 2.862 9.086 3.231 0.092 0.009 0.191 0.013 0.288 0.013 0.828-0.003 1.578-0.343 2.118-0.887s0.873-1.297 0.87-2.121zM21 16.92v3c0.001 0.28-0.109 0.53-0.29 0.712s-0.429 0.295-0.706 0.296c-3.149-0.336-5.961-1.391-8.263-2.912-2.428-1.543-4.359-3.537-5.702-5.694-1.697-2.62-2.655-5.481-2.924-8.238-0.024-0.268 0.064-0.526 0.229-0.724s0.403-0.33 0.678-0.355l3.088-0.005c0.271-0.003 0.507 0.094 0.687 0.256 0.17 0.154 0.288 0.366 0.323 0.608 0.142 1.072 0.408 2.117 0.757 3.025 0.081 0.216 0.080 0.447 0.010 0.658-0.049 0.145-0.131 0.281-0.242 0.395l-1.262 1.261c-0.324 0.324-0.379 0.814-0.162 1.201 1.584 2.785 3.839 4.957 6.381 6.378 0.397 0.222 0.882 0.144 1.195-0.166l1.27-1.27c0.166-0.164 0.377-0.257 0.598-0.279 0.152-0.015 0.31 0.005 0.459 0.060 1.022 0.381 2.070 0.636 3.034 0.754 0.241 0.034 0.462 0.166 0.615 0.355 0.147 0.181 0.231 0.412 0.226 0.682z"></path>
</symbol>
<symbol id="icon-scissors" viewBox="0 0 24 24">
<path d="M7.378 16.551c0.011 0.012 0.023 0.025 0.035 0.036s0.024 0.023 0.036 0.035c0.343 0.359 0.551 0.843 0.551 1.378 0 0.553-0.223 1.051-0.586 1.414s-0.861 0.586-1.414 0.586-1.051-0.223-1.414-0.586-0.586-0.861-0.586-1.414 0.223-1.051 0.586-1.414 0.861-0.586 1.414-0.586c0.535 0 1.019 0.208 1.378 0.551zM13.764 15.188l5.53 5.52c0.391 0.39 1.024 0.39 1.414-0.001s0.39-1.024-0.001-1.414l-5.53-5.52c-0.391-0.39-1.024-0.39-1.414 0.001s-0.39 1.024 0.001 1.414zM7.449 7.378c-0.012 0.011-0.024 0.023-0.036 0.035s-0.024 0.024-0.035 0.036c-0.359 0.343-0.843 0.551-1.378 0.551-0.553 0-1.051-0.223-1.414-0.586s-0.586-0.861-0.586-1.414 0.223-1.051 0.586-1.414 0.861-0.586 1.414-0.586 1.051 0.223 1.414 0.586 0.586 0.861 0.586 1.414c0 0.535-0.208 1.019-0.551 1.378zM8.032 9.446l2.554 2.554-2.554 2.554c-0.596-0.352-1.291-0.554-2.032-0.554-1.104 0-2.106 0.449-2.828 1.172s-1.172 1.724-1.172 2.828 0.449 2.106 1.172 2.828 1.724 1.172 2.828 1.172 2.106-0.449 2.828-1.172 1.172-1.724 1.172-2.828c0-0.741-0.202-1.436-0.554-2.032l11.261-11.261c0.391-0.391 0.391-1.024 0-1.414s-1.024-0.391-1.414 0l-7.293 7.293-2.554-2.554c0.352-0.596 0.554-1.291 0.554-2.032 0-1.104-0.449-2.106-1.172-2.828s-1.724-1.172-2.828-1.172-2.106 0.449-2.828 1.172-1.172 1.724-1.172 2.828 0.449 2.106 1.172 2.828 1.724 1.172 2.828 1.172c0.741 0 1.436-0.202 2.032-0.554z"></path>
</symbol>
<symbol id="icon-shield" viewBox="0 0 24 24">
<path d="M12 20.862c-1.184-0.672-4.42-2.695-6.050-5.549-0.079-0.138-0.153-0.276-0.223-0.417-0.456-0.911-0.727-1.878-0.727-2.896v-6.307l7-2.625 7 2.625v6.307c0 1.018-0.271 1.985-0.726 2.897-0.070 0.14-0.145 0.279-0.223 0.417-1.631 2.854-4.867 4.876-6.050 5.549zM12.447 22.894c0 0 4.989-2.475 7.34-6.589 0.096-0.168 0.188-0.34 0.276-0.515 0.568-1.135 0.937-2.408 0.937-3.79v-7c0-0.426-0.267-0.79-0.649-0.936l-8-3c-0.236-0.089-0.485-0.082-0.702 0l-8 3c-0.399 0.149-0.646 0.527-0.649 0.936v7c0 1.382 0.369 2.655 0.938 3.791 0.087 0.175 0.179 0.346 0.276 0.515 2.351 4.114 7.34 6.589 7.34 6.589 0.292 0.146 0.62 0.136 0.894 0z"></path>
</symbol>
<symbol id="icon-smile" viewBox="0 0 24 24">
<path d="M23 12c0-3.037-1.232-5.789-3.222-7.778s-4.741-3.222-7.778-3.222-5.789 1.232-7.778 3.222-3.222 4.741-3.222 7.778 1.232 5.789 3.222 7.778 4.741 3.222 7.778 3.222 5.789-1.232 7.778-3.222 3.222-4.741 3.222-7.778zM21 12c0 2.486-1.006 4.734-2.636 6.364s-3.878 2.636-6.364 2.636-4.734-1.006-6.364-2.636-2.636-3.878-2.636-6.364 1.006-4.734 2.636-6.364 3.878-2.636 6.364-2.636 4.734 1.006 6.364 2.636 2.636 3.878 2.636 6.364zM7.2 14.6c0 0 0.131 0.173 0.331 0.383 0.145 0.153 0.338 0.341 0.577 0.54 0.337 0.281 0.772 0.59 1.297 0.853 0.705 0.352 1.579 0.624 2.595 0.624s1.89-0.272 2.595-0.624c0.525-0.263 0.96-0.572 1.297-0.853 0.239-0.199 0.432-0.387 0.577-0.54 0.2-0.21 0.331-0.383 0.331-0.383 0.331-0.442 0.242-1.069-0.2-1.4s-1.069-0.242-1.4 0.2c-0.041 0.050-0.181 0.206-0.181 0.206-0.1 0.105-0.237 0.239-0.408 0.382-0.243 0.203-0.549 0.419-0.91 0.6-0.48 0.239-1.050 0.412-1.701 0.412s-1.221-0.173-1.701-0.413c-0.36-0.18-0.667-0.397-0.91-0.6-0.171-0.143-0.308-0.277-0.408-0.382-0.14-0.155-0.181-0.205-0.181-0.205-0.331-0.442-0.958-0.531-1.4-0.2s-0.531 0.958-0.2 1.4zM9 10c0.552 0 1-0.448 1-1s-0.448-1-1-1-1 0.448-1 1 0.448 1 1 1zM15 10c0.552 0 1-0.448 1-1s-0.448-1-1-1-1 0.448-1 1 0.448 1 1 1z"></path>
</symbol>
<symbol id="icon-twitter" viewBox="0 0 24 24">
<path d="M20.833 5.262c-0.186 0.242-0.391 0.475-0.616 0.696-0.233 0.232-0.347 0.567-0.278 0.908 0.037 0.182 0.060 0.404 0.061 0.634 0 5.256-2.429 8.971-5.81 10.898-2.647 1.509-5.938 1.955-9.222 1.12 1.245-0.361 2.46-0.921 3.593-1.69 0.147-0.099 0.273-0.243 0.352-0.421 0.224-0.505-0.003-1.096-0.508-1.32-2.774-1.233-4.13-2.931-4.769-4.593-0.417-1.084-0.546-2.198-0.52-3.227 0.021-0.811 0.138-1.56 0.278-2.182 0.394 0.343 0.803 0.706 1.235 1.038 2.051 1.577 4.624 2.479 7.395 2.407 0.543-0.015 0.976-0.457 0.976-1v-1.011c-0.002-0.179 0.009-0.357 0.034-0.533 0.113-0.806 0.504-1.569 1.162-2.141 0.725-0.631 1.636-0.908 2.526-0.846s1.753 0.463 2.384 1.188c0.252 0.286 0.649 0.416 1.033 0.304 0.231-0.067 0.463-0.143 0.695-0.228zM22.424 2.183c-0.74 0.522-1.523 0.926-2.287 1.205-0.931-0.836-2.091-1.302-3.276-1.385-1.398-0.097-2.836 0.339-3.977 1.332-1.036 0.901-1.652 2.108-1.83 3.372-0.037 0.265-0.055 0.532-0.054 0.8-1.922-0.142-3.693-0.85-5.15-1.97-0.775-0.596-1.462-1.309-2.034-2.116-0.32-0.45-0.944-0.557-1.394-0.237-0.154 0.109-0.267 0.253-0.335 0.409 0 0-0.132 0.299-0.285 0.76-0.112 0.337-0.241 0.775-0.357 1.29-0.163 0.722-0.302 1.602-0.326 2.571-0.031 1.227 0.12 2.612 0.652 3.996 0.683 1.775 1.966 3.478 4.147 4.823-1.569 0.726-3.245 1.039-4.873 0.967-0.552-0.024-1.019 0.403-1.043 0.955-0.017 0.389 0.19 0.736 0.513 0.918 4.905 2.725 10.426 2.678 14.666 0.261 4.040-2.301 6.819-6.7 6.819-12.634-0.001-0.167-0.008-0.33-0.023-0.489 1.006-1.115 1.676-2.429 1.996-3.781 0.127-0.537-0.206-1.076-0.743-1.203-0.29-0.069-0.58-0.003-0.807 0.156z"></path>
</symbol>
</defs>
</svg>
